<?xml version="1.0" encoding="UTF-8" standalone="no"?>
<!DOCTYPE svg PUBLIC "-//W3C//DTD SVG 1.1//EN" "http://www.w3.org/Graphics/SVG/1.1/DTD/svg11.dtd">
<svg width="100%" height="100%" viewBox="0 0 32 16" version="1.1" xmlns="http://www.w3.org/2000/svg" xmlns:xlink="http://www.w3.org/1999/xlink" xml:space="preserve" xmlns:serif="http://www.serif.com/" style="fill-rule:evenodd;clip-rule:evenodd;stroke-linejoin:round;stroke-miterlimit:2;">
    <rect x="19.439" y="4.695" width="9.488" height="7.122" style="fill:rgb(6,0,0);"/>
    <path d="M16,0L0,0L0,16L16,16L16,0ZM8,5C9.656,5 11,6.344 11,8C11,9.656 9.656,11 8,11C6.344,11 5,9.656 5,8C5,6.344 6.344,5 8,5Z" style="fill:rgb(47,62,70);"/>
    <g transform="matrix(1,0,0,1,16,0)">
        <path d="M16,0L0,0L0,16L16,16L16,0ZM8,5C9.656,5 11,6.344 11,8C11,9.656 9.656,11 8,11C6.344,11 5,9.656 5,8C5,6.344 6.344,5 8,5Z" style="fill:rgb(47,62,70);"/>
    </g>
    <g transform="matrix(0.775,0,0,0.775,1.8,1.8)">
        <circle cx="8" cy="8" r="4" style="fill:url(#_Radial1);"/>
    </g>
    <g transform="matrix(0.775,0,0,0.775,17.8488,1.8)">
        <circle cx="8" cy="8" r="4" style="fill:url(#_Radial2);"/>
    </g>
    <g transform="matrix(0.25,0,0,0.25,5.25,5.25)">
        <circle cx="6" cy="6" r="1" style="fill:white;"/>
    </g>
    <g transform="matrix(0.25,0,0,0.25,21.2988,5.25)">
        <circle cx="6" cy="6" r="1" style="fill:white;"/>
    </g>
    <rect x="-1.141" y="-1.368" width="34.07" height="1.829" style="fill:rgb(47,62,70);"/>
    <rect x="-1.256" y="15.553" width="34.261" height="1.677" style="fill:rgb(47,62,70);"/>
    <rect x="-1.141" y="-1.444" width="1.905" height="17.683" style="fill:rgb(47,62,70);"/>
    <rect x="30.68" y="-0.415" width="2.172" height="17.34" style="fill:rgb(47,62,70);"/>
    <defs>
        <radialGradient id="_Radial1" cx="0" cy="0" r="1" gradientUnits="userSpaceOnUse" gradientTransform="matrix(3.5,1.5,-1.5,3.5,8,8)"><stop offset="0" style="stop-color:black;stop-opacity:0"/><stop offset="0.31" style="stop-color:black;stop-opacity:0.03"/><stop offset="0.4" style="stop-color:black;stop-opacity:0.12"/><stop offset="0.47" style="stop-color:black;stop-opacity:0.23"/><stop offset="0.52" style="stop-color:black;stop-opacity:0.29"/><stop offset="0.58" style="stop-color:black;stop-opacity:0.43"/><stop offset="1" style="stop-color:black;stop-opacity:1"/></radialGradient>
        <radialGradient id="_Radial2" cx="0" cy="0" r="1" gradientUnits="userSpaceOnUse" gradientTransform="matrix(3.5,1.5,-1.5,3.5,8,8)"><stop offset="0" style="stop-color:black;stop-opacity:0"/><stop offset="0.31" style="stop-color:black;stop-opacity:0.03"/><stop offset="0.4" style="stop-color:black;stop-opacity:0.12"/><stop offset="0.47" style="stop-color:black;stop-opacity:0.23"/><stop offset="0.52" style="stop-color:black;stop-opacity:0.29"/><stop offset="0.58" style="stop-color:black;stop-opacity:0.43"/><stop offset="1" style="stop-color:black;stop-opacity:1"/></radialGradient>
    </defs>
</svg>
