<?xml version="1.0" encoding="UTF-8" standalone="no"?>
<!DOCTYPE svg PUBLIC "-//W3C//DTD SVG 1.1//EN" "http://www.w3.org/Graphics/SVG/1.1/DTD/svg11.dtd">
<svg width="100%" height="100%" viewBox="0 0 192 16" version="1.1" xmlns="http://www.w3.org/2000/svg" xmlns:xlink="http://www.w3.org/1999/xlink" xml:space="preserve" xmlns:serif="http://www.serif.com/" style="fill-rule:evenodd;clip-rule:evenodd;stroke-linejoin:round;stroke-miterlimit:2;">
    <rect x="0" y="0.024" width="192" height="16"/>
    <g transform="matrix(1,0,0,1,0.612328,10.601)">
        <g transform="matrix(14,0,0,14,0,0)">
            <path d="M0.054,-0.69L0.063,-0.69C0.074,-0.69 0.082,-0.683 0.086,-0.668C0.222,-0.393 0.291,-0.252 0.294,-0.244L0.295,-0.244L0.505,-0.675C0.51,-0.685 0.517,-0.69 0.527,-0.69L0.53,-0.69C0.541,-0.69 0.548,-0.684 0.553,-0.672L0.553,-0.024C0.551,-0.008 0.543,0 0.53,0L0.527,0C0.516,0 0.509,-0.006 0.505,-0.018C0.504,-0.022 0.504,-0.025 0.504,-0.027L0.504,-0.561L0.503,-0.561L0.315,-0.176C0.31,-0.169 0.303,-0.166 0.293,-0.166C0.281,-0.166 0.272,-0.175 0.266,-0.194C0.257,-0.211 0.197,-0.333 0.086,-0.561L0.085,-0.561L0.085,-0.027C0.085,-0.014 0.08,-0.006 0.07,-0.001C0.067,0 0.065,0 0.063,0L0.059,0C0.046,0 0.038,-0.008 0.037,-0.024L0.037,-0.669C0.037,-0.679 0.042,-0.685 0.054,-0.69Z" style="fill:white;fill-rule:nonzero;"/>
        </g>
        <g transform="matrix(14,0,0,14,8.25098,0)">
            <path d="M0.379,-0.391C0.391,-0.391 0.398,-0.384 0.402,-0.371L0.402,-0.019C0.398,-0.006 0.392,0 0.382,0L0.118,0C0.089,0 0.065,-0.015 0.046,-0.044C0.04,-0.058 0.037,-0.07 0.037,-0.081L0.037,-0.199C0.037,-0.226 0.05,-0.249 0.077,-0.268C0.089,-0.276 0.108,-0.28 0.132,-0.28L0.354,-0.28L0.354,-0.343L0.096,-0.343C0.086,-0.343 0.079,-0.349 0.075,-0.363L0.075,-0.368C0.075,-0.379 0.082,-0.387 0.094,-0.391L0.379,-0.391ZM0.085,-0.199L0.085,-0.081C0.085,-0.069 0.092,-0.059 0.106,-0.051C0.11,-0.049 0.118,-0.048 0.131,-0.048L0.354,-0.048L0.354,-0.232L0.127,-0.232C0.106,-0.232 0.092,-0.224 0.086,-0.207C0.085,-0.203 0.085,-0.2 0.085,-0.199Z" style="fill:white;fill-rule:nonzero;"/>
        </g>
        <g transform="matrix(14,0,0,14,14.3965,0)">
            <path d="M0.133,-0.375L0.274,-0.375C0.303,-0.375 0.326,-0.36 0.345,-0.33C0.351,-0.317 0.354,-0.305 0.354,-0.293L0.354,-0.289C0.354,-0.276 0.347,-0.268 0.331,-0.266C0.316,-0.266 0.308,-0.275 0.306,-0.292C0.306,-0.308 0.297,-0.32 0.278,-0.326L0.134,-0.326C0.12,-0.326 0.11,-0.318 0.103,-0.301C0.102,-0.298 0.101,-0.295 0.101,-0.292C0.101,-0.277 0.101,-0.251 0.102,-0.214L0.331,-0.214C0.341,-0.214 0.348,-0.208 0.353,-0.198C0.354,-0.193 0.354,-0.189 0.354,-0.188L0.354,-0.078C0.354,-0.059 0.346,-0.04 0.328,-0.022C0.311,-0.007 0.293,0 0.274,0L0.118,0C0.089,0 0.065,-0.015 0.046,-0.044C0.04,-0.058 0.037,-0.07 0.037,-0.081L0.037,-0.085C0.037,-0.098 0.045,-0.106 0.061,-0.108C0.075,-0.108 0.083,-0.1 0.085,-0.083C0.085,-0.066 0.095,-0.055 0.114,-0.048L0.276,-0.048C0.286,-0.048 0.295,-0.055 0.303,-0.068C0.306,-0.073 0.307,-0.079 0.307,-0.085C0.306,-0.091 0.306,-0.096 0.306,-0.099L0.306,-0.166L0.083,-0.166C0.069,-0.166 0.06,-0.17 0.057,-0.178C0.056,-0.179 0.055,-0.182 0.054,-0.185C0.053,-0.241 0.053,-0.278 0.053,-0.297C0.053,-0.314 0.061,-0.332 0.078,-0.351C0.095,-0.367 0.114,-0.375 0.133,-0.375Z" style="fill:white;fill-rule:nonzero;"/>
        </g>
        <g transform="matrix(14,0,0,14,19.8721,0)">
            <path d="M0.14,-0.689L0.144,-0.689C0.154,-0.689 0.161,-0.684 0.165,-0.673C0.166,-0.671 0.166,-0.667 0.166,-0.661L0.166,-0.378L0.248,-0.378C0.255,-0.378 0.261,-0.373 0.266,-0.364C0.267,-0.361 0.268,-0.358 0.268,-0.354L0.268,-0.353C0.266,-0.338 0.259,-0.33 0.246,-0.33L0.166,-0.33L0.166,-0.124C0.166,-0.1 0.177,-0.08 0.198,-0.063C0.211,-0.053 0.228,-0.048 0.25,-0.048C0.262,-0.044 0.268,-0.036 0.268,-0.025L0.268,-0.022C0.268,-0.011 0.261,-0.004 0.249,0L0.238,0C0.21,0 0.183,-0.012 0.156,-0.035C0.131,-0.061 0.118,-0.091 0.118,-0.127L0.118,-0.33L0.056,-0.33C0.041,-0.33 0.032,-0.333 0.028,-0.339C0.026,-0.344 0.024,-0.348 0.024,-0.351L0.024,-0.355C0.024,-0.367 0.031,-0.374 0.043,-0.378L0.118,-0.378L0.118,-0.668C0.118,-0.677 0.123,-0.684 0.135,-0.688C0.136,-0.689 0.138,-0.689 0.14,-0.689Z" style="fill:white;fill-rule:nonzero;"/>
        </g>
        <g transform="matrix(14,0,0,14,23.7959,0)">
            <path d="M0.117,-0.378L0.315,-0.378C0.344,-0.378 0.368,-0.364 0.389,-0.335C0.398,-0.319 0.402,-0.305 0.402,-0.292L0.402,-0.252C0.402,-0.23 0.393,-0.209 0.374,-0.19C0.357,-0.174 0.333,-0.166 0.302,-0.166L0.085,-0.166L0.085,-0.081C0.085,-0.067 0.093,-0.057 0.11,-0.05C0.112,-0.049 0.114,-0.048 0.118,-0.048L0.37,-0.048C0.385,-0.048 0.394,-0.046 0.397,-0.04C0.401,-0.035 0.402,-0.031 0.402,-0.025L0.402,-0.022C0.402,-0.011 0.396,-0.004 0.383,0L0.118,0C0.089,0 0.065,-0.015 0.046,-0.044C0.04,-0.058 0.037,-0.07 0.037,-0.081L0.037,-0.297C0.037,-0.323 0.049,-0.345 0.074,-0.364C0.089,-0.373 0.103,-0.378 0.117,-0.378ZM0.085,-0.297L0.085,-0.214L0.307,-0.214C0.33,-0.214 0.345,-0.224 0.353,-0.244C0.354,-0.249 0.354,-0.252 0.354,-0.253L0.354,-0.291C0.354,-0.306 0.345,-0.318 0.328,-0.327C0.323,-0.329 0.319,-0.33 0.315,-0.33L0.118,-0.33C0.104,-0.33 0.093,-0.321 0.086,-0.304C0.085,-0.303 0.085,-0.3 0.085,-0.297Z" style="fill:white;fill-rule:nonzero;"/>
        </g>
        <g transform="matrix(14,0,0,14,29.9414,0)">
            <path d="M0.059,-0.373L0.062,-0.373C0.073,-0.373 0.081,-0.366 0.084,-0.354L0.084,-0.3C0.106,-0.332 0.135,-0.354 0.172,-0.366C0.189,-0.37 0.203,-0.373 0.214,-0.373L0.225,-0.373C0.234,-0.373 0.241,-0.367 0.245,-0.355L0.246,-0.347C0.246,-0.336 0.239,-0.328 0.227,-0.325C0.165,-0.325 0.124,-0.292 0.101,-0.225C0.09,-0.19 0.084,-0.161 0.084,-0.137L0.084,-0.021C0.084,-0.011 0.079,-0.005 0.067,0L0.059,0C0.048,0 0.04,-0.006 0.037,-0.019L0.037,-0.352C0.037,-0.36 0.041,-0.366 0.05,-0.371C0.053,-0.372 0.056,-0.373 0.059,-0.373Z" style="fill:white;fill-rule:nonzero;"/>
        </g>
        <g transform="matrix(14,0,0,14,40.8379,0)">
            <path d="M0.054,-0.69L0.063,-0.69C0.074,-0.69 0.082,-0.683 0.086,-0.668C0.222,-0.393 0.291,-0.252 0.294,-0.244L0.295,-0.244L0.505,-0.675C0.51,-0.685 0.517,-0.69 0.527,-0.69L0.53,-0.69C0.541,-0.69 0.548,-0.684 0.553,-0.672L0.553,-0.024C0.551,-0.008 0.543,0 0.53,0L0.527,0C0.516,0 0.509,-0.006 0.505,-0.018C0.504,-0.022 0.504,-0.025 0.504,-0.027L0.504,-0.561L0.503,-0.561L0.315,-0.176C0.31,-0.169 0.303,-0.166 0.293,-0.166C0.281,-0.166 0.272,-0.175 0.266,-0.194C0.257,-0.211 0.197,-0.333 0.086,-0.561L0.085,-0.561L0.085,-0.027C0.085,-0.014 0.08,-0.006 0.07,-0.001C0.067,0 0.065,0 0.063,0L0.059,0C0.046,0 0.038,-0.008 0.037,-0.024L0.037,-0.669C0.037,-0.679 0.042,-0.685 0.054,-0.69Z" style="fill:white;fill-rule:nonzero;"/>
        </g>
        <g transform="matrix(14,0,0,14,49.0889,0)">
            <path d="M0.06,-0.483L0.063,-0.483C0.074,-0.483 0.082,-0.477 0.086,-0.464L0.086,-0.388C0.086,-0.379 0.08,-0.373 0.068,-0.368L0.06,-0.368C0.049,-0.368 0.041,-0.374 0.037,-0.386L0.037,-0.462C0.037,-0.471 0.043,-0.478 0.055,-0.482C0.056,-0.483 0.058,-0.483 0.06,-0.483ZM0.062,-0.321C0.072,-0.321 0.079,-0.316 0.084,-0.307C0.085,-0.304 0.086,-0.3 0.086,-0.296L0.086,-0.026C0.086,-0.013 0.081,-0.005 0.07,-0.001C0.069,0 0.066,0 0.063,0L0.06,0C0.05,0 0.042,-0.006 0.038,-0.017C0.037,-0.021 0.037,-0.024 0.037,-0.026L0.037,-0.296C0.037,-0.308 0.042,-0.316 0.053,-0.32L0.062,-0.321Z" style="fill:white;fill-rule:nonzero;"/>
        </g>
        <g transform="matrix(14,0,0,14,50.8115,0)">
            <path d="M0.117,-0.377L0.297,-0.377C0.326,-0.377 0.35,-0.362 0.369,-0.333C0.375,-0.319 0.378,-0.307 0.378,-0.296L0.378,-0.021C0.378,-0.011 0.373,-0.005 0.361,0L0.354,0C0.338,0 0.33,-0.01 0.33,-0.031L0.33,-0.296C0.33,-0.31 0.322,-0.32 0.306,-0.327C0.302,-0.329 0.295,-0.33 0.284,-0.33L0.131,-0.33C0.112,-0.33 0.101,-0.326 0.096,-0.319C0.089,-0.312 0.085,-0.304 0.085,-0.296L0.085,-0.031C0.085,-0.01 0.077,0 0.062,0L0.059,0C0.048,0 0.04,-0.006 0.037,-0.019L0.037,-0.296C0.037,-0.32 0.047,-0.341 0.068,-0.359C0.084,-0.371 0.101,-0.377 0.117,-0.377Z" style="fill:white;fill-rule:nonzero;"/>
        </g>
        <g transform="matrix(14,0,0,14,56.6221,0)">
            <path d="M0.377,-0.69L0.38,-0.69C0.391,-0.69 0.399,-0.684 0.402,-0.671L0.402,-0.021C0.402,-0.011 0.396,-0.004 0.383,0L0.117,0C0.091,0 0.069,-0.013 0.05,-0.038C0.041,-0.053 0.037,-0.067 0.037,-0.081L0.037,-0.297C0.037,-0.323 0.05,-0.346 0.076,-0.365C0.09,-0.374 0.106,-0.378 0.125,-0.378L0.354,-0.378L0.354,-0.659C0.354,-0.68 0.362,-0.69 0.377,-0.69ZM0.085,-0.297L0.085,-0.081C0.085,-0.069 0.092,-0.059 0.106,-0.051C0.11,-0.049 0.118,-0.048 0.131,-0.048L0.354,-0.048L0.354,-0.33L0.12,-0.33C0.104,-0.33 0.092,-0.321 0.086,-0.303C0.085,-0.3 0.085,-0.299 0.085,-0.297Z" style="fill:white;fill-rule:nonzero;"/>
        </g>
    </g>
    <rect x="65.959" y="0.021" width="126.04" height="16" style="fill:white;"/>
    <g transform="matrix(1,0,0,1,134.739,14.215)">
        <g transform="matrix(8,0,0,8,0,0)">
            <path d="M0.118,-0.378L0.382,-0.378C0.391,-0.378 0.398,-0.372 0.402,-0.36L0.402,-0.353C0.402,-0.341 0.396,-0.334 0.383,-0.33L0.118,-0.33C0.104,-0.33 0.093,-0.321 0.086,-0.304C0.085,-0.303 0.085,-0.3 0.085,-0.297L0.085,-0.081C0.085,-0.067 0.093,-0.057 0.11,-0.05C0.112,-0.049 0.114,-0.048 0.118,-0.048L0.37,-0.048C0.385,-0.048 0.394,-0.046 0.397,-0.04C0.401,-0.035 0.402,-0.031 0.402,-0.025L0.402,-0.022C0.402,-0.011 0.396,-0.004 0.383,0L0.118,0C0.093,0 0.071,-0.012 0.053,-0.035C0.042,-0.05 0.037,-0.065 0.037,-0.081L0.037,-0.297C0.037,-0.326 0.051,-0.349 0.081,-0.369C0.094,-0.375 0.107,-0.378 0.118,-0.378Z" style="fill-rule:nonzero;"/>
        </g>
        <g transform="matrix(8,0,0,8,3.51172,0)">
            <path d="M0.059,-0.69L0.062,-0.69C0.073,-0.69 0.081,-0.684 0.084,-0.671L0.084,-0.021C0.084,-0.011 0.079,-0.005 0.067,0L0.059,0C0.048,0 0.04,-0.006 0.037,-0.019L0.037,-0.67C0.037,-0.677 0.041,-0.684 0.05,-0.688C0.053,-0.69 0.056,-0.69 0.059,-0.69Z" style="fill-rule:nonzero;"/>
        </g>
        <g transform="matrix(8,0,0,8,4.48047,0)">
            <path d="M0.06,-0.483L0.063,-0.483C0.074,-0.483 0.082,-0.477 0.086,-0.464L0.086,-0.388C0.086,-0.379 0.08,-0.373 0.068,-0.368L0.06,-0.368C0.049,-0.368 0.041,-0.374 0.037,-0.386L0.037,-0.462C0.037,-0.471 0.043,-0.478 0.055,-0.482C0.056,-0.483 0.058,-0.483 0.06,-0.483ZM0.062,-0.321C0.072,-0.321 0.079,-0.316 0.084,-0.307C0.085,-0.304 0.086,-0.3 0.086,-0.296L0.086,-0.026C0.086,-0.013 0.081,-0.005 0.07,-0.001C0.069,0 0.066,0 0.063,0L0.06,0C0.05,0 0.042,-0.006 0.038,-0.017C0.037,-0.021 0.037,-0.024 0.037,-0.026L0.037,-0.296C0.037,-0.308 0.042,-0.316 0.053,-0.32L0.062,-0.321Z" style="fill-rule:nonzero;"/>
        </g>
        <g transform="matrix(8,0,0,8,5.46484,0)">
            <path d="M0.118,-0.378L0.382,-0.378C0.391,-0.378 0.398,-0.372 0.402,-0.36L0.402,-0.353C0.402,-0.341 0.396,-0.334 0.383,-0.33L0.118,-0.33C0.104,-0.33 0.093,-0.321 0.086,-0.304C0.085,-0.303 0.085,-0.3 0.085,-0.297L0.085,-0.081C0.085,-0.067 0.093,-0.057 0.11,-0.05C0.112,-0.049 0.114,-0.048 0.118,-0.048L0.37,-0.048C0.385,-0.048 0.394,-0.046 0.397,-0.04C0.401,-0.035 0.402,-0.031 0.402,-0.025L0.402,-0.022C0.402,-0.011 0.396,-0.004 0.383,0L0.118,0C0.093,0 0.071,-0.012 0.053,-0.035C0.042,-0.05 0.037,-0.065 0.037,-0.081L0.037,-0.297C0.037,-0.326 0.051,-0.349 0.081,-0.369C0.094,-0.375 0.107,-0.378 0.118,-0.378Z" style="fill-rule:nonzero;"/>
        </g>
        <g transform="matrix(8,0,0,8,8.97656,0)">
            <path d="M0.059,-0.69L0.062,-0.69C0.077,-0.69 0.085,-0.68 0.085,-0.659L0.085,-0.266C0.095,-0.272 0.114,-0.275 0.141,-0.275C0.155,-0.276 0.171,-0.283 0.191,-0.294C0.209,-0.311 0.221,-0.324 0.225,-0.334C0.232,-0.344 0.239,-0.36 0.247,-0.381C0.253,-0.403 0.258,-0.428 0.26,-0.458C0.265,-0.468 0.273,-0.474 0.283,-0.474C0.299,-0.472 0.308,-0.464 0.308,-0.451L0.308,-0.449C0.308,-0.424 0.3,-0.391 0.286,-0.349C0.276,-0.321 0.26,-0.296 0.239,-0.273C0.26,-0.268 0.276,-0.258 0.288,-0.245C0.301,-0.228 0.308,-0.21 0.308,-0.194L0.308,-0.022C0.308,-0.009 0.299,-0.002 0.283,0C0.272,0 0.264,-0.006 0.26,-0.017C0.26,-0.019 0.259,-0.025 0.259,-0.033L0.259,-0.193C0.259,-0.206 0.251,-0.216 0.236,-0.224C0.232,-0.225 0.228,-0.226 0.225,-0.226L0.12,-0.226C0.104,-0.226 0.093,-0.217 0.086,-0.201C0.085,-0.199 0.085,-0.196 0.085,-0.193L0.085,-0.031C0.085,-0.01 0.077,0 0.062,0L0.059,0C0.048,0 0.04,-0.006 0.037,-0.019L0.037,-0.67C0.037,-0.677 0.041,-0.684 0.05,-0.688C0.053,-0.69 0.056,-0.69 0.059,-0.69Z" style="fill-rule:nonzero;"/>
        </g>
        <g transform="matrix(8,0,0,8,13.7148,0)">
            <path d="M0.14,-0.689L0.144,-0.689C0.154,-0.689 0.161,-0.684 0.165,-0.673C0.166,-0.671 0.166,-0.667 0.166,-0.661L0.166,-0.378L0.248,-0.378C0.255,-0.378 0.261,-0.373 0.266,-0.364C0.267,-0.361 0.268,-0.358 0.268,-0.354L0.268,-0.353C0.266,-0.338 0.259,-0.33 0.246,-0.33L0.166,-0.33L0.166,-0.124C0.166,-0.1 0.177,-0.08 0.198,-0.063C0.211,-0.053 0.228,-0.048 0.25,-0.048C0.262,-0.044 0.268,-0.036 0.268,-0.025L0.268,-0.022C0.268,-0.011 0.261,-0.004 0.249,0L0.238,0C0.21,0 0.183,-0.012 0.156,-0.035C0.131,-0.061 0.118,-0.091 0.118,-0.127L0.118,-0.33L0.056,-0.33C0.041,-0.33 0.032,-0.333 0.028,-0.339C0.026,-0.344 0.024,-0.348 0.024,-0.351L0.024,-0.355C0.024,-0.367 0.031,-0.374 0.043,-0.378L0.118,-0.378L0.118,-0.668C0.118,-0.677 0.123,-0.684 0.135,-0.688C0.136,-0.689 0.138,-0.689 0.14,-0.689Z" style="fill-rule:nonzero;"/>
        </g>
        <g transform="matrix(8,0,0,8,15.957,0)">
            <path d="M0.118,-0.378L0.286,-0.378C0.315,-0.378 0.339,-0.363 0.357,-0.333C0.364,-0.32 0.367,-0.308 0.367,-0.297L0.367,-0.081C0.367,-0.052 0.352,-0.028 0.322,-0.009C0.309,-0.003 0.297,0 0.286,0L0.118,0C0.089,0 0.065,-0.015 0.046,-0.044C0.04,-0.058 0.037,-0.07 0.037,-0.081L0.037,-0.297C0.037,-0.326 0.051,-0.35 0.081,-0.369C0.094,-0.375 0.107,-0.378 0.118,-0.378ZM0.085,-0.299L0.085,-0.079C0.085,-0.071 0.09,-0.062 0.102,-0.053C0.108,-0.05 0.113,-0.048 0.118,-0.048L0.286,-0.048C0.299,-0.048 0.31,-0.057 0.317,-0.073C0.318,-0.076 0.318,-0.078 0.318,-0.079L0.318,-0.299C0.318,-0.307 0.313,-0.316 0.302,-0.325C0.295,-0.328 0.29,-0.33 0.286,-0.33L0.118,-0.33C0.104,-0.33 0.094,-0.321 0.086,-0.305C0.085,-0.302 0.085,-0.3 0.085,-0.299Z" style="fill-rule:nonzero;"/>
        </g>
        <g transform="matrix(8,0,0,8,21.168,0)">
            <path d="M0.118,-0.378L0.286,-0.378C0.315,-0.378 0.339,-0.363 0.357,-0.333C0.364,-0.32 0.367,-0.308 0.367,-0.297L0.367,-0.081C0.367,-0.055 0.354,-0.033 0.33,-0.014C0.315,-0.005 0.3,0 0.286,0L0.117,0C0.108,0 0.098,-0.002 0.085,-0.007L0.085,0.142C0.085,0.163 0.077,0.173 0.062,0.173L0.059,0.173C0.048,0.173 0.04,0.167 0.037,0.154L0.037,-0.297C0.037,-0.323 0.049,-0.346 0.075,-0.365C0.089,-0.374 0.104,-0.378 0.118,-0.378ZM0.085,-0.299L0.085,-0.081C0.085,-0.067 0.093,-0.057 0.11,-0.05C0.112,-0.049 0.114,-0.048 0.118,-0.048L0.286,-0.048C0.3,-0.048 0.31,-0.057 0.317,-0.074C0.318,-0.075 0.318,-0.077 0.318,-0.079L0.318,-0.299C0.318,-0.307 0.313,-0.316 0.302,-0.325C0.295,-0.328 0.29,-0.33 0.286,-0.33L0.118,-0.33C0.104,-0.33 0.094,-0.321 0.086,-0.305C0.085,-0.302 0.085,-0.3 0.085,-0.299Z" style="fill-rule:nonzero;"/>
        </g>
        <g transform="matrix(8,0,0,8,24.3945,0)">
            <path d="M0.059,-0.69L0.062,-0.69C0.073,-0.69 0.081,-0.684 0.084,-0.671L0.084,-0.021C0.084,-0.011 0.079,-0.005 0.067,0L0.059,0C0.048,0 0.04,-0.006 0.037,-0.019L0.037,-0.67C0.037,-0.677 0.041,-0.684 0.05,-0.688C0.053,-0.69 0.056,-0.69 0.059,-0.69Z" style="fill-rule:nonzero;"/>
        </g>
        <g transform="matrix(8,0,0,8,25.3633,0)">
            <path d="M0.379,-0.391C0.391,-0.391 0.398,-0.384 0.402,-0.371L0.402,-0.019C0.398,-0.006 0.392,0 0.382,0L0.118,0C0.089,0 0.065,-0.015 0.046,-0.044C0.04,-0.058 0.037,-0.07 0.037,-0.081L0.037,-0.199C0.037,-0.226 0.05,-0.249 0.077,-0.268C0.089,-0.276 0.108,-0.28 0.132,-0.28L0.354,-0.28L0.354,-0.343L0.096,-0.343C0.086,-0.343 0.079,-0.349 0.075,-0.363L0.075,-0.368C0.075,-0.379 0.082,-0.387 0.094,-0.391L0.379,-0.391ZM0.085,-0.199L0.085,-0.081C0.085,-0.069 0.092,-0.059 0.106,-0.051C0.11,-0.049 0.118,-0.048 0.131,-0.048L0.354,-0.048L0.354,-0.232L0.127,-0.232C0.106,-0.232 0.092,-0.224 0.086,-0.207C0.085,-0.203 0.085,-0.2 0.085,-0.199Z" style="fill-rule:nonzero;"/>
        </g>
        <g transform="matrix(8,0,0,8,28.875,0)">
            <path d="M0.063,-0.378C0.073,-0.378 0.081,-0.371 0.084,-0.358C0.124,-0.179 0.145,-0.085 0.147,-0.076C0.155,-0.058 0.166,-0.048 0.18,-0.048L0.341,-0.048C0.36,-0.048 0.372,-0.064 0.377,-0.096C0.397,-0.182 0.417,-0.27 0.437,-0.361C0.441,-0.372 0.448,-0.378 0.458,-0.378L0.463,-0.378C0.477,-0.374 0.484,-0.368 0.484,-0.357L0.484,-0.349C0.483,-0.34 0.47,-0.281 0.445,-0.173C0.431,-0.109 0.42,-0.064 0.414,-0.04C0.401,0.024 0.389,0.069 0.377,0.096C0.361,0.13 0.342,0.151 0.32,0.161C0.305,0.168 0.29,0.171 0.276,0.171L0.265,0.171C0.255,0.171 0.248,0.165 0.245,0.151L0.245,0.146C0.247,0.131 0.255,0.123 0.27,0.123C0.298,0.123 0.318,0.111 0.328,0.086C0.339,0.064 0.347,0.038 0.354,0.005L0.355,-0.001C0.35,0 0.344,0 0.339,0L0.181,0C0.141,0 0.113,-0.025 0.098,-0.074C0.058,-0.253 0.038,-0.347 0.037,-0.354L0.037,-0.356C0.037,-0.366 0.043,-0.373 0.055,-0.378L0.063,-0.378Z" style="fill-rule:nonzero;"/>
        </g>
        <g transform="matrix(8,0,0,8,35.0273,0)">
            <path d="M0.379,-0.391C0.391,-0.391 0.398,-0.384 0.402,-0.371L0.402,-0.019C0.398,-0.006 0.392,0 0.382,0L0.118,0C0.089,0 0.065,-0.015 0.046,-0.044C0.04,-0.058 0.037,-0.07 0.037,-0.081L0.037,-0.199C0.037,-0.226 0.05,-0.249 0.077,-0.268C0.089,-0.276 0.108,-0.28 0.132,-0.28L0.354,-0.28L0.354,-0.343L0.096,-0.343C0.086,-0.343 0.079,-0.349 0.075,-0.363L0.075,-0.368C0.075,-0.379 0.082,-0.387 0.094,-0.391L0.379,-0.391ZM0.085,-0.199L0.085,-0.081C0.085,-0.069 0.092,-0.059 0.106,-0.051C0.11,-0.049 0.118,-0.048 0.131,-0.048L0.354,-0.048L0.354,-0.232L0.127,-0.232C0.106,-0.232 0.092,-0.224 0.086,-0.207C0.085,-0.203 0.085,-0.2 0.085,-0.199Z" style="fill-rule:nonzero;"/>
        </g>
        <g transform="matrix(8,0,0,8,38.5391,0)">
            <path d="M0.426,-0.477L0.432,-0.477C0.443,-0.477 0.45,-0.471 0.454,-0.458L0.454,-0.452C0.454,-0.442 0.448,-0.434 0.437,-0.43C0.421,-0.429 0.408,-0.426 0.399,-0.423C0.382,-0.414 0.369,-0.4 0.36,-0.379L0.357,-0.371C0.382,-0.354 0.394,-0.328 0.394,-0.294L0.394,-0.202C0.394,-0.158 0.374,-0.129 0.333,-0.115C0.324,-0.112 0.314,-0.111 0.304,-0.111L0.187,-0.111C0.161,-0.081 0.144,-0.06 0.137,-0.049L0.14,-0.048L0.369,-0.048C0.385,-0.046 0.393,-0.038 0.393,-0.024C0.393,0.03 0.393,0.066 0.394,0.084C0.394,0.109 0.382,0.132 0.358,0.15C0.343,0.16 0.328,0.166 0.312,0.166L0.142,0.166C0.119,0.166 0.099,0.155 0.081,0.135C0.068,0.119 0.061,0.101 0.061,0.081C0.061,0.067 0.069,0.059 0.086,0.057C0.1,0.057 0.108,0.065 0.11,0.082C0.11,0.1 0.12,0.112 0.14,0.117C0.145,0.118 0.15,0.118 0.155,0.118L0.299,0.118C0.316,0.118 0.328,0.115 0.333,0.108C0.341,0.1 0.345,0.092 0.345,0.084L0.345,0L0.153,0C0.118,0 0.097,-0.007 0.09,-0.021C0.086,-0.027 0.084,-0.034 0.084,-0.042C0.084,-0.057 0.097,-0.08 0.124,-0.111L0.123,-0.111C0.086,-0.111 0.058,-0.13 0.042,-0.167C0.038,-0.177 0.037,-0.186 0.037,-0.193L0.037,-0.305C0.037,-0.332 0.05,-0.354 0.077,-0.374C0.091,-0.382 0.106,-0.386 0.123,-0.386L0.312,-0.386C0.316,-0.404 0.327,-0.424 0.347,-0.445C0.372,-0.466 0.398,-0.477 0.426,-0.477ZM0.085,-0.305L0.085,-0.192C0.085,-0.185 0.089,-0.177 0.096,-0.17C0.103,-0.163 0.111,-0.16 0.12,-0.16L0.31,-0.16C0.327,-0.16 0.339,-0.169 0.345,-0.189L0.345,-0.301C0.345,-0.319 0.336,-0.331 0.317,-0.336C0.315,-0.337 0.312,-0.337 0.31,-0.337L0.12,-0.337C0.104,-0.337 0.093,-0.329 0.086,-0.312C0.085,-0.31 0.085,-0.308 0.085,-0.305Z" style="fill-rule:nonzero;"/>
        </g>
        <g transform="matrix(8,0,0,8,41.875,0)">
            <path d="M0.379,-0.391C0.391,-0.391 0.398,-0.384 0.402,-0.371L0.402,-0.019C0.398,-0.006 0.392,0 0.382,0L0.118,0C0.089,0 0.065,-0.015 0.046,-0.044C0.04,-0.058 0.037,-0.07 0.037,-0.081L0.037,-0.199C0.037,-0.226 0.05,-0.249 0.077,-0.268C0.089,-0.276 0.108,-0.28 0.132,-0.28L0.354,-0.28L0.354,-0.343L0.096,-0.343C0.086,-0.343 0.079,-0.349 0.075,-0.363L0.075,-0.368C0.075,-0.379 0.082,-0.387 0.094,-0.391L0.379,-0.391ZM0.085,-0.199L0.085,-0.081C0.085,-0.069 0.092,-0.059 0.106,-0.051C0.11,-0.049 0.118,-0.048 0.131,-0.048L0.354,-0.048L0.354,-0.232L0.127,-0.232C0.106,-0.232 0.092,-0.224 0.086,-0.207C0.085,-0.203 0.085,-0.2 0.085,-0.199Z" style="fill-rule:nonzero;"/>
        </g>
        <g transform="matrix(8,0,0,8,45.3867,0)">
            <path d="M0.06,-0.483L0.063,-0.483C0.074,-0.483 0.082,-0.477 0.086,-0.464L0.086,-0.388C0.086,-0.379 0.08,-0.373 0.068,-0.368L0.06,-0.368C0.049,-0.368 0.041,-0.374 0.037,-0.386L0.037,-0.462C0.037,-0.471 0.043,-0.478 0.055,-0.482C0.056,-0.483 0.058,-0.483 0.06,-0.483ZM0.062,-0.321C0.072,-0.321 0.079,-0.316 0.084,-0.307C0.085,-0.304 0.086,-0.3 0.086,-0.296L0.086,-0.026C0.086,-0.013 0.081,-0.005 0.07,-0.001C0.069,0 0.066,0 0.063,0L0.06,0C0.05,0 0.042,-0.006 0.038,-0.017C0.037,-0.021 0.037,-0.024 0.037,-0.026L0.037,-0.296C0.037,-0.308 0.042,-0.316 0.053,-0.32L0.062,-0.321Z" style="fill-rule:nonzero;"/>
        </g>
        <g transform="matrix(8,0,0,8,46.3711,0)">
            <path d="M0.117,-0.377L0.297,-0.377C0.326,-0.377 0.35,-0.362 0.369,-0.333C0.375,-0.319 0.378,-0.307 0.378,-0.296L0.378,-0.021C0.378,-0.011 0.373,-0.005 0.361,0L0.354,0C0.338,0 0.33,-0.01 0.33,-0.031L0.33,-0.296C0.33,-0.31 0.322,-0.32 0.306,-0.327C0.302,-0.329 0.295,-0.33 0.284,-0.33L0.131,-0.33C0.112,-0.33 0.101,-0.326 0.096,-0.319C0.089,-0.312 0.085,-0.304 0.085,-0.296L0.085,-0.031C0.085,-0.01 0.077,0 0.062,0L0.059,0C0.048,0 0.04,-0.006 0.037,-0.019L0.037,-0.296C0.037,-0.32 0.047,-0.341 0.068,-0.359C0.084,-0.371 0.101,-0.377 0.117,-0.377Z" style="fill-rule:nonzero;"/>
        </g>
    </g>
    <g transform="matrix(1,0,0,1,31.7208,14.8668)">
        <g transform="matrix(4,0,0,4,0,0)">
            <path d="M0.118,-0.378L0.382,-0.378C0.391,-0.378 0.398,-0.372 0.402,-0.36L0.402,-0.353C0.402,-0.341 0.396,-0.334 0.383,-0.33L0.118,-0.33C0.104,-0.33 0.093,-0.321 0.086,-0.304C0.085,-0.303 0.085,-0.3 0.085,-0.297L0.085,-0.081C0.085,-0.067 0.093,-0.057 0.11,-0.05C0.112,-0.049 0.114,-0.048 0.118,-0.048L0.37,-0.048C0.385,-0.048 0.394,-0.046 0.397,-0.04C0.401,-0.035 0.402,-0.031 0.402,-0.025L0.402,-0.022C0.402,-0.011 0.396,-0.004 0.383,0L0.118,0C0.093,0 0.071,-0.012 0.053,-0.035C0.042,-0.05 0.037,-0.065 0.037,-0.081L0.037,-0.297C0.037,-0.326 0.051,-0.349 0.081,-0.369C0.094,-0.375 0.107,-0.378 0.118,-0.378Z" style="fill:white;fill-rule:nonzero;"/>
        </g>
        <g transform="matrix(4,0,0,4,1.75586,0)">
            <path d="M0.118,-0.378L0.286,-0.378C0.315,-0.378 0.339,-0.363 0.357,-0.333C0.364,-0.32 0.367,-0.308 0.367,-0.297L0.367,-0.081C0.367,-0.052 0.352,-0.028 0.322,-0.009C0.309,-0.003 0.297,0 0.286,0L0.118,0C0.089,0 0.065,-0.015 0.046,-0.044C0.04,-0.058 0.037,-0.07 0.037,-0.081L0.037,-0.297C0.037,-0.326 0.051,-0.35 0.081,-0.369C0.094,-0.375 0.107,-0.378 0.118,-0.378ZM0.085,-0.299L0.085,-0.079C0.085,-0.071 0.09,-0.062 0.102,-0.053C0.108,-0.05 0.113,-0.048 0.118,-0.048L0.286,-0.048C0.299,-0.048 0.31,-0.057 0.317,-0.073C0.318,-0.076 0.318,-0.078 0.318,-0.079L0.318,-0.299C0.318,-0.307 0.313,-0.316 0.302,-0.325C0.295,-0.328 0.29,-0.33 0.286,-0.33L0.118,-0.33C0.104,-0.33 0.094,-0.321 0.086,-0.305C0.085,-0.302 0.085,-0.3 0.085,-0.299Z" style="fill:white;fill-rule:nonzero;"/>
        </g>
        <g transform="matrix(4,0,0,4,3.36914,0)">
            <path d="M0.377,-0.69L0.38,-0.69C0.391,-0.69 0.399,-0.684 0.402,-0.671L0.402,-0.021C0.402,-0.011 0.396,-0.004 0.383,0L0.117,0C0.091,0 0.069,-0.013 0.05,-0.038C0.041,-0.053 0.037,-0.067 0.037,-0.081L0.037,-0.297C0.037,-0.323 0.05,-0.346 0.076,-0.365C0.09,-0.374 0.106,-0.378 0.125,-0.378L0.354,-0.378L0.354,-0.659C0.354,-0.68 0.362,-0.69 0.377,-0.69ZM0.085,-0.297L0.085,-0.081C0.085,-0.069 0.092,-0.059 0.106,-0.051C0.11,-0.049 0.118,-0.048 0.131,-0.048L0.354,-0.048L0.354,-0.33L0.12,-0.33C0.104,-0.33 0.092,-0.321 0.086,-0.303C0.085,-0.3 0.085,-0.299 0.085,-0.297Z" style="fill:white;fill-rule:nonzero;"/>
        </g>
        <g transform="matrix(4,0,0,4,5.125,0)">
            <path d="M0.117,-0.378L0.315,-0.378C0.344,-0.378 0.368,-0.364 0.389,-0.335C0.398,-0.319 0.402,-0.305 0.402,-0.292L0.402,-0.252C0.402,-0.23 0.393,-0.209 0.374,-0.19C0.357,-0.174 0.333,-0.166 0.302,-0.166L0.085,-0.166L0.085,-0.081C0.085,-0.067 0.093,-0.057 0.11,-0.05C0.112,-0.049 0.114,-0.048 0.118,-0.048L0.37,-0.048C0.385,-0.048 0.394,-0.046 0.397,-0.04C0.401,-0.035 0.402,-0.031 0.402,-0.025L0.402,-0.022C0.402,-0.011 0.396,-0.004 0.383,0L0.118,0C0.089,0 0.065,-0.015 0.046,-0.044C0.04,-0.058 0.037,-0.07 0.037,-0.081L0.037,-0.297C0.037,-0.323 0.049,-0.345 0.074,-0.364C0.089,-0.373 0.103,-0.378 0.117,-0.378ZM0.085,-0.297L0.085,-0.214L0.307,-0.214C0.33,-0.214 0.345,-0.224 0.353,-0.244C0.354,-0.249 0.354,-0.252 0.354,-0.253L0.354,-0.291C0.354,-0.306 0.345,-0.318 0.328,-0.327C0.323,-0.329 0.319,-0.33 0.315,-0.33L0.118,-0.33C0.104,-0.33 0.093,-0.321 0.086,-0.304C0.085,-0.303 0.085,-0.3 0.085,-0.297Z" style="fill:white;fill-rule:nonzero;"/>
        </g>
        <g transform="matrix(4,0,0,4,7.87305,0)">
            <path d="M0.06,-0.072L0.063,-0.072C0.074,-0.072 0.082,-0.066 0.086,-0.053L0.086,-0.021C0.086,-0.012 0.08,-0.005 0.068,0L0.06,0C0.049,0 0.041,-0.006 0.037,-0.019L0.037,-0.051C0.037,-0.06 0.043,-0.067 0.055,-0.071C0.056,-0.072 0.058,-0.072 0.06,-0.072ZM0.055,-0.206L0.063,-0.206C0.074,-0.206 0.082,-0.2 0.086,-0.188L0.086,-0.155C0.086,-0.146 0.08,-0.14 0.068,-0.135L0.06,-0.135C0.049,-0.135 0.041,-0.141 0.037,-0.153L0.037,-0.186C0.037,-0.194 0.043,-0.201 0.055,-0.206Z" style="fill:white;fill-rule:nonzero;"/>
        </g>
        <g transform="matrix(4,0,0,4,9.35742,0)">
            <path d="M0.059,-0.691L0.063,-0.691C0.074,-0.691 0.082,-0.684 0.086,-0.669C0.254,-0.323 0.343,-0.14 0.353,-0.119L0.354,-0.119L0.354,-0.659C0.354,-0.681 0.361,-0.691 0.376,-0.691L0.379,-0.691C0.391,-0.691 0.398,-0.685 0.402,-0.672L0.402,-0.021C0.402,-0.01 0.395,-0.003 0.38,0L0.369,0C0.359,0 0.349,-0.012 0.339,-0.037C0.335,-0.046 0.25,-0.22 0.086,-0.561L0.085,-0.561L0.085,-0.028C0.085,-0.017 0.082,-0.009 0.077,-0.005C0.072,-0.002 0.067,0 0.062,0L0.06,0C0.044,-0.002 0.037,-0.01 0.037,-0.023L0.037,-0.67C0.037,-0.679 0.042,-0.686 0.054,-0.69C0.056,-0.691 0.057,-0.691 0.059,-0.691Z" style="fill:white;fill-rule:nonzero;"/>
        </g>
        <g transform="matrix(4,0,0,4,11.1113,0)">
            <path d="M0.06,-0.483L0.063,-0.483C0.074,-0.483 0.082,-0.477 0.086,-0.464L0.086,-0.388C0.086,-0.379 0.08,-0.373 0.068,-0.368L0.06,-0.368C0.049,-0.368 0.041,-0.374 0.037,-0.386L0.037,-0.462C0.037,-0.471 0.043,-0.478 0.055,-0.482C0.056,-0.483 0.058,-0.483 0.06,-0.483ZM0.062,-0.321C0.072,-0.321 0.079,-0.316 0.084,-0.307C0.085,-0.304 0.086,-0.3 0.086,-0.296L0.086,-0.026C0.086,-0.013 0.081,-0.005 0.07,-0.001C0.069,0 0.066,0 0.063,0L0.06,0C0.05,0 0.042,-0.006 0.038,-0.017C0.037,-0.021 0.037,-0.024 0.037,-0.026L0.037,-0.296C0.037,-0.308 0.042,-0.316 0.053,-0.32L0.062,-0.321Z" style="fill:white;fill-rule:nonzero;"/>
        </g>
        <g transform="matrix(4,0,0,4,11.6035,0)">
            <path d="M0.118,-0.378L0.382,-0.378C0.391,-0.378 0.398,-0.372 0.402,-0.36L0.402,-0.353C0.402,-0.341 0.396,-0.334 0.383,-0.33L0.118,-0.33C0.104,-0.33 0.093,-0.321 0.086,-0.304C0.085,-0.303 0.085,-0.3 0.085,-0.297L0.085,-0.081C0.085,-0.067 0.093,-0.057 0.11,-0.05C0.112,-0.049 0.114,-0.048 0.118,-0.048L0.37,-0.048C0.385,-0.048 0.394,-0.046 0.397,-0.04C0.401,-0.035 0.402,-0.031 0.402,-0.025L0.402,-0.022C0.402,-0.011 0.396,-0.004 0.383,0L0.118,0C0.093,0 0.071,-0.012 0.053,-0.035C0.042,-0.05 0.037,-0.065 0.037,-0.081L0.037,-0.297C0.037,-0.326 0.051,-0.349 0.081,-0.369C0.094,-0.375 0.107,-0.378 0.118,-0.378Z" style="fill:white;fill-rule:nonzero;"/>
        </g>
        <g transform="matrix(4,0,0,4,13.3594,0)">
            <path d="M0.118,-0.378L0.286,-0.378C0.315,-0.378 0.339,-0.363 0.357,-0.333C0.364,-0.32 0.367,-0.308 0.367,-0.297L0.367,-0.081C0.367,-0.052 0.352,-0.028 0.322,-0.009C0.309,-0.003 0.297,0 0.286,0L0.118,0C0.089,0 0.065,-0.015 0.046,-0.044C0.04,-0.058 0.037,-0.07 0.037,-0.081L0.037,-0.297C0.037,-0.326 0.051,-0.35 0.081,-0.369C0.094,-0.375 0.107,-0.378 0.118,-0.378ZM0.085,-0.299L0.085,-0.079C0.085,-0.071 0.09,-0.062 0.102,-0.053C0.108,-0.05 0.113,-0.048 0.118,-0.048L0.286,-0.048C0.299,-0.048 0.31,-0.057 0.317,-0.073C0.318,-0.076 0.318,-0.078 0.318,-0.079L0.318,-0.299C0.318,-0.307 0.313,-0.316 0.302,-0.325C0.295,-0.328 0.29,-0.33 0.286,-0.33L0.118,-0.33C0.104,-0.33 0.094,-0.321 0.086,-0.305C0.085,-0.302 0.085,-0.3 0.085,-0.299Z" style="fill:white;fill-rule:nonzero;"/>
        </g>
        <g transform="matrix(4,0,0,4,14.9727,0)">
            <path d="M0.059,-0.69L0.062,-0.69C0.073,-0.69 0.081,-0.684 0.084,-0.671L0.084,-0.021C0.084,-0.011 0.079,-0.005 0.067,0L0.059,0C0.048,0 0.04,-0.006 0.037,-0.019L0.037,-0.67C0.037,-0.677 0.041,-0.684 0.05,-0.688C0.053,-0.69 0.056,-0.69 0.059,-0.69Z" style="fill:white;fill-rule:nonzero;"/>
        </g>
        <g transform="matrix(4,0,0,4,15.457,0)">
            <path d="M0.379,-0.391C0.391,-0.391 0.398,-0.384 0.402,-0.371L0.402,-0.019C0.398,-0.006 0.392,0 0.382,0L0.118,0C0.089,0 0.065,-0.015 0.046,-0.044C0.04,-0.058 0.037,-0.07 0.037,-0.081L0.037,-0.199C0.037,-0.226 0.05,-0.249 0.077,-0.268C0.089,-0.276 0.108,-0.28 0.132,-0.28L0.354,-0.28L0.354,-0.343L0.096,-0.343C0.086,-0.343 0.079,-0.349 0.075,-0.363L0.075,-0.368C0.075,-0.379 0.082,-0.387 0.094,-0.391L0.379,-0.391ZM0.085,-0.199L0.085,-0.081C0.085,-0.069 0.092,-0.059 0.106,-0.051C0.11,-0.049 0.118,-0.048 0.131,-0.048L0.354,-0.048L0.354,-0.232L0.127,-0.232C0.106,-0.232 0.092,-0.224 0.086,-0.207C0.085,-0.203 0.085,-0.2 0.085,-0.199Z" style="fill:white;fill-rule:nonzero;"/>
        </g>
        <g transform="matrix(4,0,0,4,17.2129,0)">
            <path d="M0.133,-0.375L0.274,-0.375C0.303,-0.375 0.326,-0.36 0.345,-0.33C0.351,-0.317 0.354,-0.305 0.354,-0.293L0.354,-0.289C0.354,-0.276 0.347,-0.268 0.331,-0.266C0.316,-0.266 0.308,-0.275 0.306,-0.292C0.306,-0.308 0.297,-0.32 0.278,-0.326L0.134,-0.326C0.12,-0.326 0.11,-0.318 0.103,-0.301C0.102,-0.298 0.101,-0.295 0.101,-0.292C0.101,-0.277 0.101,-0.251 0.102,-0.214L0.331,-0.214C0.341,-0.214 0.348,-0.208 0.353,-0.198C0.354,-0.193 0.354,-0.189 0.354,-0.188L0.354,-0.078C0.354,-0.059 0.346,-0.04 0.328,-0.022C0.311,-0.007 0.293,0 0.274,0L0.118,0C0.089,0 0.065,-0.015 0.046,-0.044C0.04,-0.058 0.037,-0.07 0.037,-0.081L0.037,-0.085C0.037,-0.098 0.045,-0.106 0.061,-0.108C0.075,-0.108 0.083,-0.1 0.085,-0.083C0.085,-0.066 0.095,-0.055 0.114,-0.048L0.276,-0.048C0.286,-0.048 0.295,-0.055 0.303,-0.068C0.306,-0.073 0.307,-0.079 0.307,-0.085C0.306,-0.091 0.306,-0.096 0.306,-0.099L0.306,-0.166L0.083,-0.166C0.069,-0.166 0.06,-0.17 0.057,-0.178C0.056,-0.179 0.055,-0.182 0.054,-0.185C0.053,-0.241 0.053,-0.278 0.053,-0.297C0.053,-0.314 0.061,-0.332 0.078,-0.351C0.095,-0.367 0.114,-0.375 0.133,-0.375Z" style="fill:white;fill-rule:nonzero;"/>
        </g>
        <g transform="matrix(4,0,0,4,19.7695,0)">
            <path d="M0.13,-0.69L0.303,-0.69C0.313,-0.69 0.32,-0.684 0.324,-0.671L0.324,-0.666C0.324,-0.654 0.317,-0.646 0.304,-0.643L0.146,-0.643C0.123,-0.643 0.108,-0.638 0.1,-0.629C0.09,-0.62 0.084,-0.605 0.084,-0.583L0.084,-0.108C0.084,-0.086 0.089,-0.071 0.098,-0.064C0.106,-0.053 0.121,-0.048 0.146,-0.048L0.365,-0.048C0.374,-0.048 0.381,-0.042 0.385,-0.031L0.386,-0.022C0.386,-0.011 0.379,-0.004 0.367,0L0.13,0C0.1,0 0.074,-0.015 0.052,-0.044C0.042,-0.062 0.037,-0.078 0.037,-0.092L0.037,-0.598C0.037,-0.626 0.051,-0.651 0.079,-0.674C0.097,-0.685 0.114,-0.69 0.13,-0.69Z" style="fill:white;fill-rule:nonzero;"/>
        </g>
        <g transform="matrix(4,0,0,4,21.459,0)">
            <path d="M0.059,-0.69L0.062,-0.69C0.077,-0.69 0.085,-0.68 0.085,-0.659L0.085,-0.37C0.096,-0.375 0.11,-0.378 0.125,-0.378L0.326,-0.378C0.368,-0.378 0.397,-0.358 0.411,-0.317C0.413,-0.31 0.415,-0.304 0.415,-0.297L0.415,-0.022C0.415,-0.009 0.406,-0.002 0.39,0C0.379,0 0.371,-0.006 0.367,-0.017C0.367,-0.019 0.366,-0.025 0.366,-0.033L0.366,-0.297C0.366,-0.311 0.358,-0.321 0.341,-0.328C0.337,-0.329 0.333,-0.33 0.331,-0.33L0.12,-0.33C0.104,-0.33 0.092,-0.32 0.085,-0.301L0.085,-0.031C0.085,-0.01 0.077,0 0.062,0L0.059,0C0.048,0 0.04,-0.006 0.037,-0.019L0.037,-0.67C0.037,-0.677 0.041,-0.684 0.05,-0.688C0.053,-0.69 0.056,-0.69 0.059,-0.69Z" style="fill:white;fill-rule:nonzero;"/>
        </g>
        <g transform="matrix(4,0,0,4,23.2637,0)">
            <path d="M0.117,-0.378L0.315,-0.378C0.344,-0.378 0.368,-0.364 0.389,-0.335C0.398,-0.319 0.402,-0.305 0.402,-0.292L0.402,-0.252C0.402,-0.23 0.393,-0.209 0.374,-0.19C0.357,-0.174 0.333,-0.166 0.302,-0.166L0.085,-0.166L0.085,-0.081C0.085,-0.067 0.093,-0.057 0.11,-0.05C0.112,-0.049 0.114,-0.048 0.118,-0.048L0.37,-0.048C0.385,-0.048 0.394,-0.046 0.397,-0.04C0.401,-0.035 0.402,-0.031 0.402,-0.025L0.402,-0.022C0.402,-0.011 0.396,-0.004 0.383,0L0.118,0C0.089,0 0.065,-0.015 0.046,-0.044C0.04,-0.058 0.037,-0.07 0.037,-0.081L0.037,-0.297C0.037,-0.323 0.049,-0.345 0.074,-0.364C0.089,-0.373 0.103,-0.378 0.117,-0.378ZM0.085,-0.297L0.085,-0.214L0.307,-0.214C0.33,-0.214 0.345,-0.224 0.353,-0.244C0.354,-0.249 0.354,-0.252 0.354,-0.253L0.354,-0.291C0.354,-0.306 0.345,-0.318 0.328,-0.327C0.323,-0.329 0.319,-0.33 0.315,-0.33L0.118,-0.33C0.104,-0.33 0.093,-0.321 0.086,-0.304C0.085,-0.303 0.085,-0.3 0.085,-0.297Z" style="fill:white;fill-rule:nonzero;"/>
        </g>
        <g transform="matrix(4,0,0,4,25.0195,0)">
            <path d="M0.117,-0.377L0.297,-0.377C0.326,-0.377 0.35,-0.362 0.369,-0.333C0.375,-0.319 0.378,-0.307 0.378,-0.296L0.378,-0.021C0.378,-0.011 0.373,-0.005 0.361,0L0.354,0C0.338,0 0.33,-0.01 0.33,-0.031L0.33,-0.296C0.33,-0.31 0.322,-0.32 0.306,-0.327C0.302,-0.329 0.295,-0.33 0.284,-0.33L0.131,-0.33C0.112,-0.33 0.101,-0.326 0.096,-0.319C0.089,-0.312 0.085,-0.304 0.085,-0.296L0.085,-0.031C0.085,-0.01 0.077,0 0.062,0L0.059,0C0.048,0 0.04,-0.006 0.037,-0.019L0.037,-0.296C0.037,-0.32 0.047,-0.341 0.068,-0.359C0.084,-0.371 0.101,-0.377 0.117,-0.377Z" style="fill:white;fill-rule:nonzero;"/>
        </g>
        <g transform="matrix(4,0,0,4,26.6797,0)">
            <path d="M0.379,-0.391C0.391,-0.391 0.398,-0.384 0.402,-0.371L0.402,-0.019C0.398,-0.006 0.392,0 0.382,0L0.118,0C0.089,0 0.065,-0.015 0.046,-0.044C0.04,-0.058 0.037,-0.07 0.037,-0.081L0.037,-0.199C0.037,-0.226 0.05,-0.249 0.077,-0.268C0.089,-0.276 0.108,-0.28 0.132,-0.28L0.354,-0.28L0.354,-0.343L0.096,-0.343C0.086,-0.343 0.079,-0.349 0.075,-0.363L0.075,-0.368C0.075,-0.379 0.082,-0.387 0.094,-0.391L0.379,-0.391ZM0.085,-0.199L0.085,-0.081C0.085,-0.069 0.092,-0.059 0.106,-0.051C0.11,-0.049 0.118,-0.048 0.131,-0.048L0.354,-0.048L0.354,-0.232L0.127,-0.232C0.106,-0.232 0.092,-0.224 0.086,-0.207C0.085,-0.203 0.085,-0.2 0.085,-0.199Z" style="fill:white;fill-rule:nonzero;"/>
        </g>
        <g transform="matrix(4,0,0,4,28.4355,0)">
            <path d="M0.059,-0.373L0.062,-0.373C0.073,-0.373 0.081,-0.366 0.084,-0.354L0.084,-0.3C0.106,-0.332 0.135,-0.354 0.172,-0.366C0.189,-0.37 0.203,-0.373 0.214,-0.373L0.225,-0.373C0.234,-0.373 0.241,-0.367 0.245,-0.355L0.246,-0.347C0.246,-0.336 0.239,-0.328 0.227,-0.325C0.165,-0.325 0.124,-0.292 0.101,-0.225C0.09,-0.19 0.084,-0.161 0.084,-0.137L0.084,-0.021C0.084,-0.011 0.079,-0.005 0.067,0L0.059,0C0.048,0 0.04,-0.006 0.037,-0.019L0.037,-0.352C0.037,-0.36 0.041,-0.366 0.05,-0.371C0.053,-0.372 0.056,-0.373 0.059,-0.373Z" style="fill:white;fill-rule:nonzero;"/>
        </g>
        <g transform="matrix(4,0,0,4,29.5645,0)">
            <path d="M0.377,-0.69L0.38,-0.69C0.391,-0.69 0.399,-0.684 0.402,-0.671L0.402,-0.021C0.402,-0.011 0.396,-0.004 0.383,0L0.117,0C0.091,0 0.069,-0.013 0.05,-0.038C0.041,-0.053 0.037,-0.067 0.037,-0.081L0.037,-0.297C0.037,-0.323 0.05,-0.346 0.076,-0.365C0.09,-0.374 0.106,-0.378 0.125,-0.378L0.354,-0.378L0.354,-0.659C0.354,-0.68 0.362,-0.69 0.377,-0.69ZM0.085,-0.297L0.085,-0.081C0.085,-0.069 0.092,-0.059 0.106,-0.051C0.11,-0.049 0.118,-0.048 0.131,-0.048L0.354,-0.048L0.354,-0.33L0.12,-0.33C0.104,-0.33 0.092,-0.321 0.086,-0.303C0.085,-0.3 0.085,-0.299 0.085,-0.297Z" style="fill:white;fill-rule:nonzero;"/>
        </g>
    </g>
    <g transform="matrix(1,0,0,1,76.796,11.018)">
        <g transform="matrix(12,0,0,12,0,0)">
            <path d="M0.063,-0.378C0.073,-0.378 0.081,-0.371 0.084,-0.358C0.124,-0.179 0.145,-0.085 0.147,-0.076C0.155,-0.058 0.166,-0.048 0.18,-0.048L0.341,-0.048C0.36,-0.048 0.372,-0.064 0.377,-0.096C0.397,-0.182 0.417,-0.27 0.437,-0.361C0.441,-0.372 0.448,-0.378 0.458,-0.378L0.463,-0.378C0.477,-0.374 0.484,-0.368 0.484,-0.357L0.484,-0.349C0.483,-0.34 0.47,-0.281 0.445,-0.173C0.431,-0.109 0.42,-0.064 0.414,-0.04C0.401,0.024 0.389,0.069 0.377,0.096C0.361,0.13 0.342,0.151 0.32,0.161C0.305,0.168 0.29,0.171 0.276,0.171L0.265,0.171C0.255,0.171 0.248,0.165 0.245,0.151L0.245,0.146C0.247,0.131 0.255,0.123 0.27,0.123C0.298,0.123 0.318,0.111 0.328,0.086C0.339,0.064 0.347,0.038 0.354,0.005L0.355,-0.001C0.35,0 0.344,0 0.339,0L0.181,0C0.141,0 0.113,-0.025 0.098,-0.074C0.058,-0.253 0.038,-0.347 0.037,-0.354L0.037,-0.356C0.037,-0.366 0.043,-0.373 0.055,-0.378L0.063,-0.378Z" style="fill-rule:nonzero;"/>
        </g>
        <g transform="matrix(12,0,0,12,6.25195,0)">
            <path d="M0.118,-0.378L0.286,-0.378C0.315,-0.378 0.339,-0.363 0.357,-0.333C0.364,-0.32 0.367,-0.308 0.367,-0.297L0.367,-0.081C0.367,-0.052 0.352,-0.028 0.322,-0.009C0.309,-0.003 0.297,0 0.286,0L0.118,0C0.089,0 0.065,-0.015 0.046,-0.044C0.04,-0.058 0.037,-0.07 0.037,-0.081L0.037,-0.297C0.037,-0.326 0.051,-0.35 0.081,-0.369C0.094,-0.375 0.107,-0.378 0.118,-0.378ZM0.085,-0.299L0.085,-0.079C0.085,-0.071 0.09,-0.062 0.102,-0.053C0.108,-0.05 0.113,-0.048 0.118,-0.048L0.286,-0.048C0.299,-0.048 0.31,-0.057 0.317,-0.073C0.318,-0.076 0.318,-0.078 0.318,-0.079L0.318,-0.299C0.318,-0.307 0.313,-0.316 0.302,-0.325C0.295,-0.328 0.29,-0.33 0.286,-0.33L0.118,-0.33C0.104,-0.33 0.094,-0.321 0.086,-0.305C0.085,-0.302 0.085,-0.3 0.085,-0.299Z" style="fill-rule:nonzero;"/>
        </g>
        <g transform="matrix(12,0,0,12,11.0918,0)">
            <path d="M0.059,-0.377L0.062,-0.377C0.077,-0.377 0.085,-0.367 0.085,-0.346L0.085,-0.081C0.085,-0.069 0.092,-0.059 0.106,-0.051C0.11,-0.049 0.118,-0.048 0.131,-0.048L0.284,-0.048C0.303,-0.048 0.315,-0.052 0.32,-0.059C0.327,-0.066 0.33,-0.073 0.33,-0.081L0.33,-0.346C0.33,-0.367 0.338,-0.377 0.354,-0.377L0.356,-0.377C0.368,-0.377 0.375,-0.371 0.378,-0.358L0.378,-0.081C0.378,-0.052 0.364,-0.028 0.334,-0.009C0.321,-0.003 0.308,0 0.297,0L0.117,0C0.091,0 0.069,-0.013 0.05,-0.038C0.041,-0.053 0.037,-0.067 0.037,-0.081L0.037,-0.356C0.037,-0.364 0.041,-0.37 0.05,-0.375C0.053,-0.376 0.056,-0.377 0.059,-0.377Z" style="fill-rule:nonzero;"/>
        </g>
        <g transform="matrix(12,0,0,12,19.0488,0)">
            <path d="M0.059,-0.69L0.062,-0.69C0.073,-0.69 0.081,-0.684 0.084,-0.671L0.084,-0.021C0.084,-0.011 0.079,-0.005 0.067,0L0.059,0C0.048,0 0.04,-0.006 0.037,-0.019L0.037,-0.67C0.037,-0.677 0.041,-0.684 0.05,-0.688C0.053,-0.69 0.056,-0.69 0.059,-0.69Z" style="fill-rule:nonzero;"/>
        </g>
        <g transform="matrix(12,0,0,12,20.502,0)">
            <path d="M0.118,-0.378L0.286,-0.378C0.315,-0.378 0.339,-0.363 0.357,-0.333C0.364,-0.32 0.367,-0.308 0.367,-0.297L0.367,-0.081C0.367,-0.052 0.352,-0.028 0.322,-0.009C0.309,-0.003 0.297,0 0.286,0L0.118,0C0.089,0 0.065,-0.015 0.046,-0.044C0.04,-0.058 0.037,-0.07 0.037,-0.081L0.037,-0.297C0.037,-0.326 0.051,-0.35 0.081,-0.369C0.094,-0.375 0.107,-0.378 0.118,-0.378ZM0.085,-0.299L0.085,-0.079C0.085,-0.071 0.09,-0.062 0.102,-0.053C0.108,-0.05 0.113,-0.048 0.118,-0.048L0.286,-0.048C0.299,-0.048 0.31,-0.057 0.317,-0.073C0.318,-0.076 0.318,-0.078 0.318,-0.079L0.318,-0.299C0.318,-0.307 0.313,-0.316 0.302,-0.325C0.295,-0.328 0.29,-0.33 0.286,-0.33L0.118,-0.33C0.104,-0.33 0.094,-0.321 0.086,-0.305C0.085,-0.302 0.085,-0.3 0.085,-0.299Z" style="fill-rule:nonzero;"/>
        </g>
        <g transform="matrix(12,0,0,12,25.3418,0)">
            <path d="M0.133,-0.375L0.274,-0.375C0.303,-0.375 0.326,-0.36 0.345,-0.33C0.351,-0.317 0.354,-0.305 0.354,-0.293L0.354,-0.289C0.354,-0.276 0.347,-0.268 0.331,-0.266C0.316,-0.266 0.308,-0.275 0.306,-0.292C0.306,-0.308 0.297,-0.32 0.278,-0.326L0.134,-0.326C0.12,-0.326 0.11,-0.318 0.103,-0.301C0.102,-0.298 0.101,-0.295 0.101,-0.292C0.101,-0.277 0.101,-0.251 0.102,-0.214L0.331,-0.214C0.341,-0.214 0.348,-0.208 0.353,-0.198C0.354,-0.193 0.354,-0.189 0.354,-0.188L0.354,-0.078C0.354,-0.059 0.346,-0.04 0.328,-0.022C0.311,-0.007 0.293,0 0.274,0L0.118,0C0.089,0 0.065,-0.015 0.046,-0.044C0.04,-0.058 0.037,-0.07 0.037,-0.081L0.037,-0.085C0.037,-0.098 0.045,-0.106 0.061,-0.108C0.075,-0.108 0.083,-0.1 0.085,-0.083C0.085,-0.066 0.095,-0.055 0.114,-0.048L0.276,-0.048C0.286,-0.048 0.295,-0.055 0.303,-0.068C0.306,-0.073 0.307,-0.079 0.307,-0.085C0.306,-0.091 0.306,-0.096 0.306,-0.099L0.306,-0.166L0.083,-0.166C0.069,-0.166 0.06,-0.17 0.057,-0.178C0.056,-0.179 0.055,-0.182 0.054,-0.185C0.053,-0.241 0.053,-0.278 0.053,-0.297C0.053,-0.314 0.061,-0.332 0.078,-0.351C0.095,-0.367 0.114,-0.375 0.133,-0.375Z" style="fill-rule:nonzero;"/>
        </g>
        <g transform="matrix(12,0,0,12,30.0352,0)">
            <path d="M0.117,-0.378L0.315,-0.378C0.344,-0.378 0.368,-0.364 0.389,-0.335C0.398,-0.319 0.402,-0.305 0.402,-0.292L0.402,-0.252C0.402,-0.23 0.393,-0.209 0.374,-0.19C0.357,-0.174 0.333,-0.166 0.302,-0.166L0.085,-0.166L0.085,-0.081C0.085,-0.067 0.093,-0.057 0.11,-0.05C0.112,-0.049 0.114,-0.048 0.118,-0.048L0.37,-0.048C0.385,-0.048 0.394,-0.046 0.397,-0.04C0.401,-0.035 0.402,-0.031 0.402,-0.025L0.402,-0.022C0.402,-0.011 0.396,-0.004 0.383,0L0.118,0C0.089,0 0.065,-0.015 0.046,-0.044C0.04,-0.058 0.037,-0.07 0.037,-0.081L0.037,-0.297C0.037,-0.323 0.049,-0.345 0.074,-0.364C0.089,-0.373 0.103,-0.378 0.117,-0.378ZM0.085,-0.297L0.085,-0.214L0.307,-0.214C0.33,-0.214 0.345,-0.224 0.353,-0.244C0.354,-0.249 0.354,-0.252 0.354,-0.253L0.354,-0.291C0.354,-0.306 0.345,-0.318 0.328,-0.327C0.323,-0.329 0.319,-0.33 0.315,-0.33L0.118,-0.33C0.104,-0.33 0.093,-0.321 0.086,-0.304C0.085,-0.303 0.085,-0.3 0.085,-0.297Z" style="fill-rule:nonzero;"/>
        </g>
        <g transform="matrix(12,0,0,12,38.2793,0)">
            <path d="M0.06,-0.69L0.063,-0.69C0.073,-0.69 0.081,-0.685 0.085,-0.673C0.086,-0.669 0.086,-0.666 0.086,-0.664L0.086,-0.188C0.086,-0.176 0.081,-0.168 0.07,-0.164L0.061,-0.162C0.051,-0.162 0.044,-0.167 0.039,-0.177C0.038,-0.18 0.037,-0.183 0.037,-0.188L0.037,-0.666C0.039,-0.682 0.046,-0.69 0.06,-0.69ZM0.06,-0.116L0.063,-0.116C0.074,-0.116 0.082,-0.11 0.086,-0.097L0.086,-0.021C0.086,-0.012 0.08,-0.005 0.068,0L0.06,0C0.049,0 0.041,-0.006 0.037,-0.019L0.037,-0.095C0.037,-0.104 0.043,-0.111 0.055,-0.115C0.056,-0.115 0.058,-0.116 0.06,-0.116Z" style="fill-rule:nonzero;"/>
        </g>
    </g>
    <g transform="matrix(1,0,0,1,142.332,6.422)">
        <g transform="matrix(12,0,0,12,0,0)">
            <path d="M0.063,-0.378C0.073,-0.378 0.081,-0.371 0.084,-0.358C0.124,-0.179 0.145,-0.085 0.147,-0.076C0.155,-0.058 0.166,-0.048 0.18,-0.048L0.341,-0.048C0.36,-0.048 0.372,-0.064 0.377,-0.096C0.397,-0.182 0.417,-0.27 0.437,-0.361C0.441,-0.372 0.448,-0.378 0.458,-0.378L0.463,-0.378C0.477,-0.374 0.484,-0.368 0.484,-0.357L0.484,-0.349C0.483,-0.34 0.47,-0.281 0.445,-0.173C0.431,-0.109 0.42,-0.064 0.414,-0.04C0.401,0.024 0.389,0.069 0.377,0.096C0.361,0.13 0.342,0.151 0.32,0.161C0.305,0.168 0.29,0.171 0.276,0.171L0.265,0.171C0.255,0.171 0.248,0.165 0.245,0.151L0.245,0.146C0.247,0.131 0.255,0.123 0.27,0.123C0.298,0.123 0.318,0.111 0.328,0.086C0.339,0.064 0.347,0.038 0.354,0.005L0.355,-0.001C0.35,0 0.344,0 0.339,0L0.181,0C0.141,0 0.113,-0.025 0.098,-0.074C0.058,-0.253 0.038,-0.347 0.037,-0.354L0.037,-0.356C0.037,-0.366 0.043,-0.373 0.055,-0.378L0.063,-0.378Z" style="fill-rule:nonzero;"/>
        </g>
        <g transform="matrix(12,0,0,12,6.25195,0)">
            <path d="M0.118,-0.378L0.286,-0.378C0.315,-0.378 0.339,-0.363 0.357,-0.333C0.364,-0.32 0.367,-0.308 0.367,-0.297L0.367,-0.081C0.367,-0.052 0.352,-0.028 0.322,-0.009C0.309,-0.003 0.297,0 0.286,0L0.118,0C0.089,0 0.065,-0.015 0.046,-0.044C0.04,-0.058 0.037,-0.07 0.037,-0.081L0.037,-0.297C0.037,-0.326 0.051,-0.35 0.081,-0.369C0.094,-0.375 0.107,-0.378 0.118,-0.378ZM0.085,-0.299L0.085,-0.079C0.085,-0.071 0.09,-0.062 0.102,-0.053C0.108,-0.05 0.113,-0.048 0.118,-0.048L0.286,-0.048C0.299,-0.048 0.31,-0.057 0.317,-0.073C0.318,-0.076 0.318,-0.078 0.318,-0.079L0.318,-0.299C0.318,-0.307 0.313,-0.316 0.302,-0.325C0.295,-0.328 0.29,-0.33 0.286,-0.33L0.118,-0.33C0.104,-0.33 0.094,-0.321 0.086,-0.305C0.085,-0.302 0.085,-0.3 0.085,-0.299Z" style="fill-rule:nonzero;"/>
        </g>
        <g transform="matrix(12,0,0,12,11.0918,0)">
            <path d="M0.059,-0.377L0.062,-0.377C0.077,-0.377 0.085,-0.367 0.085,-0.346L0.085,-0.081C0.085,-0.069 0.092,-0.059 0.106,-0.051C0.11,-0.049 0.118,-0.048 0.131,-0.048L0.284,-0.048C0.303,-0.048 0.315,-0.052 0.32,-0.059C0.327,-0.066 0.33,-0.073 0.33,-0.081L0.33,-0.346C0.33,-0.367 0.338,-0.377 0.354,-0.377L0.356,-0.377C0.368,-0.377 0.375,-0.371 0.378,-0.358L0.378,-0.081C0.378,-0.052 0.364,-0.028 0.334,-0.009C0.321,-0.003 0.308,0 0.297,0L0.117,0C0.091,0 0.069,-0.013 0.05,-0.038C0.041,-0.053 0.037,-0.067 0.037,-0.081L0.037,-0.356C0.037,-0.364 0.041,-0.37 0.05,-0.375C0.053,-0.376 0.056,-0.377 0.059,-0.377Z" style="fill-rule:nonzero;"/>
        </g>
        <g transform="matrix(12,0,0,12,19.0488,0)">
            <path d="M0.064,-0.378C0.076,-0.378 0.085,-0.365 0.09,-0.34C0.147,-0.17 0.176,-0.083 0.176,-0.08L0.177,-0.08C0.178,-0.081 0.206,-0.123 0.259,-0.205C0.265,-0.211 0.271,-0.214 0.278,-0.214L0.279,-0.214C0.29,-0.214 0.299,-0.206 0.307,-0.19L0.38,-0.08C0.381,-0.083 0.413,-0.178 0.475,-0.367C0.481,-0.374 0.486,-0.378 0.492,-0.378L0.497,-0.378C0.508,-0.378 0.516,-0.371 0.52,-0.358L0.52,-0.354C0.52,-0.35 0.515,-0.332 0.504,-0.301L0.409,-0.012C0.403,-0.004 0.397,0 0.39,0L0.384,0C0.375,0 0.364,-0.012 0.352,-0.035L0.278,-0.146C0.277,-0.145 0.247,-0.099 0.188,-0.009C0.183,-0.003 0.178,0 0.173,0L0.167,0C0.155,0 0.146,-0.012 0.141,-0.035C0.081,-0.215 0.046,-0.32 0.037,-0.351L0.037,-0.357C0.037,-0.367 0.043,-0.373 0.057,-0.378L0.064,-0.378Z" style="fill-rule:nonzero;"/>
        </g>
        <g transform="matrix(12,0,0,12,25.7285,0)">
            <path d="M0.06,-0.483L0.063,-0.483C0.074,-0.483 0.082,-0.477 0.086,-0.464L0.086,-0.388C0.086,-0.379 0.08,-0.373 0.068,-0.368L0.06,-0.368C0.049,-0.368 0.041,-0.374 0.037,-0.386L0.037,-0.462C0.037,-0.471 0.043,-0.478 0.055,-0.482C0.056,-0.483 0.058,-0.483 0.06,-0.483ZM0.062,-0.321C0.072,-0.321 0.079,-0.316 0.084,-0.307C0.085,-0.304 0.086,-0.3 0.086,-0.296L0.086,-0.026C0.086,-0.013 0.081,-0.005 0.07,-0.001C0.069,0 0.066,0 0.063,0L0.06,0C0.05,0 0.042,-0.006 0.038,-0.017C0.037,-0.021 0.037,-0.024 0.037,-0.026L0.037,-0.296C0.037,-0.308 0.042,-0.316 0.053,-0.32L0.062,-0.321Z" style="fill-rule:nonzero;"/>
        </g>
        <g transform="matrix(12,0,0,12,27.2051,0)">
            <path d="M0.117,-0.377L0.297,-0.377C0.326,-0.377 0.35,-0.362 0.369,-0.333C0.375,-0.319 0.378,-0.307 0.378,-0.296L0.378,-0.021C0.378,-0.011 0.373,-0.005 0.361,0L0.354,0C0.338,0 0.33,-0.01 0.33,-0.031L0.33,-0.296C0.33,-0.31 0.322,-0.32 0.306,-0.327C0.302,-0.329 0.295,-0.33 0.284,-0.33L0.131,-0.33C0.112,-0.33 0.101,-0.326 0.096,-0.319C0.089,-0.312 0.085,-0.304 0.085,-0.296L0.085,-0.031C0.085,-0.01 0.077,0 0.062,0L0.059,0C0.048,0 0.04,-0.006 0.037,-0.019L0.037,-0.296C0.037,-0.32 0.047,-0.341 0.068,-0.359C0.084,-0.371 0.101,-0.377 0.117,-0.377Z" style="fill-rule:nonzero;"/>
        </g>
    </g>
</svg>
